<svg version="1.2" xmlns="http://www.w3.org/2000/svg" viewBox="0 0 135 80" width="135" height="80">
	<title>logo-ngi-vector-svg</title>
	<defs>
		<filter x="-50%" y="-50%" width="200%" height="200%" id="f1" ><feDropShadow dx="0" dy="0" stdDeviation="5" flood-color="#fffff8" flood-opacity=".8"/></filter>
		<linearGradient id="g1" x2="1" gradientUnits="userSpaceOnUse" gradientTransform="matrix(0,-76,128,0,67,78)">
			<stop offset="0" stop-color="#ff0000"/>
			<stop offset=".64" stop-color="#b30000"/>
			<stop offset="1" stop-color="#e40000"/>
		</linearGradient>
	</defs>
	<style>
		.s0 { fill: #743b02 } 
		.s1 { fill: #007f03 } 
		.s2 { filter: url(#f1);fill: #dfc80a } 
		.s3 { fill: #182242 } 
		.s4 { fill: #db9a3b } 
		.s5 { fill: url(#g1) } 
		.s6 { fill: #ffffff;stroke: #000000;stroke-miterlimit:10 } 
		.s7 { fill: #ffffff } 
		.s8 { fill: #000000 } 
	</style>
	<g id="Tree">
		<path class="s0" d="m22.5 71.6c0 0-1 7.7-0.5 8 0.4 0.3 2.9 0.6 3.5 0.2 0.7-0.4-0.3-8.7-0.3-8.7z"/>
		<path class="s1" d="m23.4 42.3c2.1 0 5.7 4.6 6.6 7.7 0.4 1.4-0.8 1-1.7 1.5 0 0 5 7 4.3 8.5-0.8 1.6-2.1 1.3-2.1 1.3 0 0 4.7 8 4.6 10.7-0.1 2.7-9.4 1.5-13.8 1.5-4.5-0.1-9.7 0.5-9.3-1.6 0.4-2.2 4.2-10.1 4.2-10.1 0 0-1.1 0.1-1.7-1-1.4-2.4 4.2-9.4 4.2-9.4 0 0-1.8 0.1-1.6-1.9 0.1-2 4-7.2 6.3-7.2z"/>
		<path class="s2" d="m26.6 37.2q-1-0.1-2-0.3 0-0.6 0.1-1.1c0-0.4-0.5-0.5-0.7-0.2q-0.3 0.6-0.7 1.1-0.8-0.1-1.7-0.3c-0.4 0-0.5 0.6-0.2 0.8q0.4 0.7 0.8 1.3-0.3 0.6-0.7 1.2c-0.1 0.2 0.2 0.6 0.4 0.5q0.7-0.2 1.3-0.5 0.5 0.6 1.1 1.1c0.3 0.2 0.6 0 0.6-0.4q-0.1-0.7-0.2-1.4 1-0.4 2-1.1c0.2-0.2 0.2-0.6-0.1-0.7z"/>
		<g>
			<path class="s3" d="m18.7 51.4q0 0-0.3 0.4 0.6-0.2 1.2-0.4 0 0 0-0.1c0.9 0.9 2.2 0.9 3 0 0.5 0.4 1 0.8 1.6 0.8 0.5 0 0.8-0.3 1-0.6 0.9 1 2.3 0.2 3.4 0.5q-0.2-0.4-0.3-0.4-0.4-0.1-0.9 0c-0.7 0.1-1.6 0.2-2.1-0.5 0-0.2-0.2-0.1-0.3 0-0.4 1.2-1.7 0.4-2.3-0.1 0-0.1-0.1-0.1-0.2 0-0.8 0.8-1.9 0.8-2.7 0q-0.1 0-0.2 0 0 0-0.1 0-0.5 0.3-1.1 0.4c0.2 0 0.3 0 0.3 0z"/>
			<path class="s3" d="m31 61.3q0 0-0.1-0.1c-0.3-0.1-1.2-0.5-1.3-0.9 0-0.2-0.3-0.2-0.3 0q-0.1 0-0.2 0.1c-0.6 1.2-2.1 1.6-3.2 0.8 0 0-0.1 0-0.2 0.1-0.9 0.8-2.3 0.8-3.3-0.1-0.1-0.1-0.3 0-0.3 0.2 0.1 1.2-1.1 1.9-2.1 1.6-0.9-0.3-1.5-1.1-1.9-2q0 0-0.1 0c0-0.1-0.1-0.2-0.2-0.1q-0.8 0.6-1.7 0.9 0 0.1-0.2 0.5 1-0.4 1.9-1c0.6 1.1 1.5 2.1 2.7 2.1 0.9 0.1 1.8-0.7 1.9-1.7 1.1 0.7 2.4 0.7 3.5-0.1 1.1 0.8 2.8 0.3 3.5-1 0.2 0.4 0.7 0.6 1 0.8q0.1 0 0.1 0 0-0.1 0-0.1c0 0 0.2 0.1 0.5 0z"/>
		</g>
		<path class="s4" d="m29.6 56q-0.2-0.1-0.4-0.1c-0.2 0-0.4 0.1-0.5 0.3q0 0.1 0 0.1-0.1 0.3 0 0.6c0.3 0.4 1 0.5 1.2 0 0.2-0.4 0-0.8-0.3-0.9z"/>
		<path class="s4" d="m27.7 57.9c-0.1-0.1-0.2-0.2-0.4-0.2q-0.2 0-0.3 0.1c-0.3 0.3-0.1 0.8 0.2 0.8 0.2 0.1 0.4 0 0.5-0.1 0.1-0.2 0.2-0.4 0-0.6z"/>
		<path class="s4" d="m27.6 56.6q0 0-0.1 0.1 0 0 0 0.1-0.1 0-0.1 0.1 0.1 0.2 0.2 0.2c0.2-0.1 0.3-0.2 0.3-0.4 0-0.1-0.2-0.2-0.3-0.1z"/>
		<path class="s4" d="m30.7 58.3q0 0-0.1-0.1c-0.1-0.1-0.3-0.1-0.5 0-0.1 0.2-0.2 0.5-0.1 0.7 0.1 0.2 0.3 0.3 0.5 0.3 0.2 0 0.3-0.2 0.4-0.4 0-0.2-0.1-0.4-0.2-0.5z"/>
		<path class="s4" d="m28.9 58.3q-0.1-0.1-0.1-0.1c-0.1 0-0.2 0-0.2 0.1-0.1 0.1 0 0.2 0 0.2q0.1 0 0.1 0.1c0.1 0 0.2 0 0.2-0.1 0.1-0.1 0.1-0.2 0-0.2z"/>
		<path class="s4" d="m25 59.7c-0.2-0.2-0.5-0.2-0.7 0q0 0 0 0c-0.2 0.3 0 0.7 0.3 0.7 0.3 0 0.6-0.4 0.4-0.7z"/>
		<path class="s4" d="m27.3 60.1c-0.1-0.1-0.2-0.2-0.3-0.2q-0.1 0-0.2 0.1 0 0 0 0.1-0.1 0-0.1 0.1 0 0 0 0c-0.1 0.1 0 0.3 0.1 0.3 0.1 0 0.2 0 0.3 0 0.1-0.1 0.2-0.2 0.2-0.4z"/>
		<path class="s4" d="m28.4 49.8c-0.1-0.2-0.3-0.5-0.6-0.4q0 0 0 0-0.1 0-0.2 0.1 0 0 0 0c-0.1-0.1-0.2 0-0.2 0-0.2 0.3-0.2 0.6 0 0.8 0.1 0.2 0.4 0.3 0.7 0.2 0.2-0.1 0.3-0.4 0.3-0.7z"/>
		<path class="s4" d="m27.9 48.1c-0.2 0-0.2 0.4 0 0.4 0.2 0 0.2-0.4 0-0.4z"/>
		<path class="s4" d="m26.4 49.3c-0.1-0.2-0.2-0.2-0.3-0.3q0 0-0.1 0-0.2 0-0.3 0.1-0.1 0-0.1 0.1c-0.1 0.3 0.2 0.6 0.4 0.5 0.2 0 0.4-0.2 0.4-0.4z"/>
		<path class="s4" d="m26.7 48.1c-0.3 0-0.3 0.3 0 0.3 0.2 0 0.2-0.3 0-0.3z"/>
		<path fill-rule="evenodd" class="s4" d="m29.3 49.7c-0.2 0.1-0.4-0.1-0.6-0.3q0 0 0 0c0 0-0.1-0.2 0-0.2q0 0 0-0.1 0-0.1 0.2-0.2 0 0 0.1 0 0.2 0 0.4 0.1c0.2 0.2 0.1 0.6-0.1 0.7zm-0.2-0.4q0 0 0 0 0 0 0 0.1 0 0 0.1 0 0-0.1-0.1-0.1z"/>
		<path class="s4" d="m24.7 49.7q-0.1-0.1-0.2-0.1 0 0 0 0-0.1 0-0.1 0-0.1-0.1-0.2 0c-0.1 0.1-0.1 0.3 0 0.4 0 0.2 0.2 0.2 0.4 0.1 0.1 0 0.1-0.2 0.1-0.4z"/>
		<path class="s4" d="m29.4 49.3q-0.1-0.1-0.1-0.1c-0.1-0.1-0.1-0.1-0.2-0.1-0.1 0.1-0.1 0.2-0.1 0.3q0.1 0 0.1 0.1c0 0.1 0.1 0.1 0.2 0 0.1 0 0.1-0.1 0.1-0.2z"/>
		<path class="s4" d="m27 47.9c-0.1-0.2-0.4-0.4-0.6-0.3q-0.1 0-0.1 0-0.1 0-0.2 0.2c-0.2 0.1-0.1 0.4 0.1 0.5 0.1 0.1 0.4 0.2 0.6 0.2 0.2-0.1 0.3-0.4 0.2-0.6z"/>
		<path class="s4" d="m25.2 48.7h-0.1c-0.1 0-0.1 0-0.1 0.1 0 0.1 0 0.2 0.1 0.2h0.1c0 0 0.1-0.1 0.1-0.2 0-0.1-0.1-0.1-0.1-0.1z"/>
	</g>
	<g id="Logo Base">
		<path id="Red Line" class="s5" d="m33.1 42.5c0 0 29.8 28 58.4 29.2 22.6 0.9 26.8-15.5 27.7-21.7 0.7-4.5 0.5-42.9-46.6-41.7-57.7 1.5-69.6 54.2-69.6 54.2v-1.1c0 0 8.9-59.4 71.7-59.4 44.4 0 56.3 28.5 56.3 45.5 0 8.3-4.8 30.5-34.5 30.5-34.5 0-63.4-34.6-63.4-34.6z"/>
		<g id="Letters">
			<path id="Letter I" class="s6" d="m105.8 19.4h9.5v41.3h-9.5z"/>
			<path id="Letter G" class="s6" d="m76.7 19.4v41.3h23.1v-20.8h-11.8l1 5.7h3.2v6.2h-7.3v-23.9h6.3v6.2h8.6v-14.7h-23.1z"/>
			<g id="Letter N">
				<path class="s7" d="m63 60.6v-33.8h-6.7v33.8h-7.9v-41.2h22.5v41.2h-7.9z"/>
				<path fill-rule="evenodd" class="s8" d="m71.4 61.1h-8.9v-33.8h-5.7v33.8h-8.9v-42.2h23.5zm-22.5-41.3v40.3h6.9v-33.9h7.7v33.9h6.9v-40.3z"/>
			</g>
		</g>
	</g>
</svg>